<svg width="505" height="536" viewBox="0 0 505 536" fill="none" xmlns="http://www.w3.org/2000/svg">
<path opacity="0.496117" d="M142.895 239.736L153.902 263.738" stroke="#BEBEBE" stroke-width="0.625"/>
<path opacity="0.496117" d="M140.959 240.036L125.449 257.198" stroke="#BEBEBE" stroke-width="0.625"/>
<path opacity="0.496117" d="M84.0823 116.321L62.1002 109.017" stroke="#BEBEBE" stroke-width="0.625"/>
<path opacity="0.496117" d="M31.1497 191.49L9.16755 184.186" stroke="#BEBEBE" stroke-width="0.625"/>
<path opacity="0.496117" d="M18.0373 236.761L40.1483 207.635" stroke="#BEBEBE" stroke-width="0.625"/>
<path opacity="0.5" d="M357.287 131.048L413.318 103.89" stroke="#BEBEBE" stroke-linecap="square"/>
<path opacity="0.496117" d="M87.3839 116.552L99.2617 94.7145" stroke="#BEBEBE" stroke-width="0.625"/>
<path opacity="0.496117" d="M225.257 117.609L164.541 137.459" stroke="#BEBEBE" stroke-width="0.625"/>
<path opacity="0.496117" d="M86.3013 117.281L154.287 135.156" stroke="#BEBEBE" stroke-width="0.625"/>
<path opacity="0.496117" d="M230.754 128.322L253.343 200.009" stroke="#BEBEBE" stroke-width="0.625"/>
<path opacity="0.496117" d="M83.9205 119.932L50.7612 181.461" stroke="#BEBEBE" stroke-width="0.625" stroke-linecap="square"/>
<path opacity="0.496117" d="M83.9205 119.932L50.7612 181.461" stroke="#BEBEBE" stroke-width="0.625" stroke-linecap="square"/>
<path opacity="0.496117" d="M152.287 141.3L59.2466 190.191" stroke="#BEBEBE" stroke-width="0.625" stroke-linecap="square"/>
<path opacity="0.496117" d="M155.481 144.653L141.244 237.645" stroke="#BEBEBE" stroke-width="0.625" stroke-linecap="square"/>
<path opacity="0.496117" d="M141.07 238.77L57.2795 200.383" stroke="#BEBEBE" stroke-width="0.625" stroke-linecap="square"/>
<path opacity="0.496117" d="M157.659 141.676L257.302 201.539" stroke="#BEBEBE" stroke-width="0.625"/>
<path opacity="0.496117" d="M146.047 240.724L255.476 203.6" stroke="#BEBEBE" stroke-width="0.625"/>
<path opacity="0.496117" d="M349.923 213.863L355.753 130.49" stroke="#BEBEBE" stroke-width="0.625"/>
<path opacity="0.496117" d="M294.407 169.058L352.971 213.536" stroke="#BEBEBE" stroke-width="0.625"/>
<path opacity="0.496117" d="M291.94 163.89L357.162 131.84" stroke="#BEBEBE" stroke-width="0.625"/>
<path opacity="0.496117" d="M258.134 198.778L352.427 215.232" stroke="#BEBEBE" stroke-width="0.625"/>
<path opacity="0.496117" d="M290.879 163.255L274.971 133.532" stroke="#BEBEBE" stroke-width="0.625"/>
<path opacity="0.496117" d="M291.917 164.209L258.22 197.544" stroke="#BEBEBE" stroke-width="0.625"/>
<path opacity="0.496117" d="M454.77 193.74L456.317 171.626" stroke="#BEBEBE" stroke-width="0.625"/>
<path opacity="0.496117" d="M452.062 209.169L482.4 243.655" stroke="#BEBEBE" stroke-width="0.625"/>
<path opacity="0.496117" d="M455.923 206.431L423.2 222.651" stroke="#BEBEBE" stroke-width="0.625"/>
<path opacity="0.496117" d="M358.218 130.49L449.81 196.428" stroke="#BEBEBE" stroke-width="0.625"/>
<path opacity="0.496117" d="M351.538 213.166L359.094 233.156" stroke="#BEBEBE" stroke-width="0.625"/>
<path opacity="0.496117" d="M440.5 68.8411L454.5 36.101" stroke="#BEBEBE" stroke-width="0.625"/>
<path opacity="0.496117" d="M454.5 80.6631L475.198 78.5585" stroke="#BEBEBE" stroke-width="0.625"/>
<ellipse cx="4.38055" cy="4.37104" rx="4.38055" ry="4.37104" transform="matrix(0.956305 0.292372 0.292372 -0.956305 449.25 38.6533)" fill="#A9A1EA"/>
<ellipse cx="2.81606" cy="2.80995" rx="2.81606" ry="2.80995" transform="matrix(0.956305 0.292372 0.292372 -0.956305 472.198 79.9111)" fill="#A9A1EA"/>
<path opacity="0.496117" d="M351.634 211.79L364.802 207.39" stroke="#BEBEBE" stroke-width="0.625"/>
<ellipse cx="142.122" cy="238.552" rx="7.8224" ry="7.80543" transform="rotate(4 142.122 238.552)" fill="#A9A1EA"/>
<ellipse cx="60.358" cy="107.017" rx="7.8224" ry="7.80543" transform="rotate(4 60.358 107.017)" fill="#A9A1EA"/>
<ellipse cx="157.453" cy="140.409" rx="8.76109" ry="8.74208" transform="rotate(4 157.453 140.409)" fill="#A9A1EA"/>
<ellipse cx="154.323" cy="263.273" rx="4.76109" ry="4.74208" transform="rotate(4 154.323 263.273)" fill="#A9A1EA"/>
<ellipse cx="123.829" cy="257.929" rx="3.44186" ry="3.43439" transform="rotate(4 123.829 257.929)" fill="#A9A1EA"/>
<ellipse cx="9.12383" cy="184.809" rx="3.44186" ry="3.43439" transform="rotate(4 9.12383 184.809)" fill="#A9A1EA"/>
<ellipse cx="100.108" cy="94.7726" rx="3.44186" ry="3.43439" transform="rotate(4 100.108 94.7726)" fill="#A9A1EA"/>
<ellipse cx="291.003" cy="163.832" rx="9.07399" ry="9.0543" transform="rotate(4 291.003 163.832)" fill="#A9A1EA"/>
<ellipse cx="357.001" cy="130.577" rx="6.25792" ry="6.24434" transform="rotate(4 357.001 130.577)" fill="#A9A1EA"/>
<ellipse cx="351.208" cy="213.424" rx="6.25792" ry="6.24434" transform="rotate(4 351.208 213.424)" fill="#A9A1EA"/>
<ellipse cx="86.9255" cy="117.325" rx="6.25792" ry="6.24434" transform="rotate(4 86.9255 117.325)" fill="#A9A1EA"/>
<ellipse cx="16.8178" cy="240.744" rx="6.25792" ry="6.24434" transform="rotate(4 16.8178 240.744)" fill="#A9A1EA"/>
<ellipse cx="275.817" cy="134.289" rx="4.38055" ry="4.37104" transform="rotate(4 275.817 134.289)" fill="#A9A1EA"/>
<ellipse cx="457.366" cy="165.676" rx="6.25792" ry="6.24434" transform="rotate(4 457.366 165.676)" fill="#A9A1EA"/>
<ellipse cx="483.778" cy="246.716" rx="6.25792" ry="6.24434" transform="rotate(4 483.778 246.716)" fill="#A9A1EA"/>
<ellipse cx="421.372" cy="223.434" rx="4.38055" ry="4.37104" transform="rotate(4 421.372 223.434)" fill="#A9A1EA"/>
<ellipse cx="359.475" cy="234.142" rx="4.38055" ry="4.37104" transform="rotate(4 359.475 234.142)" fill="#A9A1EA"/>
<ellipse cx="366.889" cy="206.029" rx="2.81606" ry="2.80995" transform="rotate(4 366.889 206.029)" fill="#A9A1EA"/>
<ellipse cx="460.801" cy="207.126" rx="24.3964" ry="24.3529" transform="rotate(4 460.801 207.126)" fill="#A4C8F3"/>
<g filter="url(#filter0_d_855_14949)">
<ellipse cx="227.754" cy="112.328" rx="29.7541" ry="29.7272" fill="white" stroke="#4D39E9" stroke-width="1.375"/>
</g>
<g filter="url(#filter1_d_855_14949)">
<circle cx="53" cy="188.6" r="28.3562" fill="white" stroke="#4D39E9" stroke-width="1.1875"/>
</g>
<g filter="url(#filter2_d_855_14949)">
<ellipse cx="432" cy="89.5734" rx="30" ry="29.9729" fill="white" stroke="#4D39E9" stroke-width="1.25"/>
</g>
<g filter="url(#filter3_d_855_14949)">
<ellipse cx="462" cy="208.573" rx="30" ry="29.9729" fill="white" stroke="#4D39E9" stroke-width="1.25"/>
</g>
<g filter="url(#filter4_d_855_14949)">
<ellipse cx="255" cy="201.573" rx="30" ry="29.9729" fill="white" stroke="#4D39E9" stroke-width="1.12812"/>
</g>
<path fill-rule="evenodd" clip-rule="evenodd" d="M373.736 479.6L133.261 479.601C130.908 479.601 129 477.689 129 475.33V318.87C129 316.512 130.908 314.601 133.261 314.601H373.736C376.091 314.601 377.996 316.512 377.996 318.87L378 475.33C378 477.689 376.091 479.6 373.736 479.6Z" fill="#D2D2CD"/>
<path fill-rule="evenodd" clip-rule="evenodd" d="M129 474.695V319.506C129 317.349 130.752 315.601 132.912 315.601H373.085C375.247 315.601 377 317.349 377 319.506V474.695C377 476.852 375.247 478.601 373.085 478.601H132.912C130.752 478.601 129 476.852 129 474.695Z" fill="#464644"/>
<rect x="138.084" y="325.617" width="228.923" height="141.145" fill="white"/>
<path fill-rule="evenodd" clip-rule="evenodd" d="M417.145 522.601H88.8538C82.3663 522.601 78.6284 521.238 80.4691 519.59L126.737 478.16C127.705 477.293 132.202 476.601 136.795 476.601H369.207C373.797 476.601 378.295 477.293 379.265 478.16L425.532 519.59C427.37 521.238 423.632 522.601 417.145 522.601Z" fill="#F4F4F1"/>
<path fill-rule="evenodd" clip-rule="evenodd" d="M426 521.601C425.979 522.796 422.5 523.683 417.149 523.683H88.849C83.5922 523.683 80.1416 522.827 80 521.664V525.192L80.0021 526.54C80.0635 527.724 83.5287 528.601 88.849 528.601H417.149C422.483 528.601 425.95 527.72 425.996 526.531L426 525.182V521.601Z" fill="#DCDBD6"/>
<path fill-rule="evenodd" clip-rule="evenodd" d="M88.8541 535.601C82.3665 535.601 78.6286 534.068 80.4689 532.214L84.0573 528.601C85.3697 528.79 86.9603 528.897 88.7672 528.901C88.7818 528.901 88.7948 528.901 88.8069 528.901C88.8278 528.901 88.8407 528.901 88.8541 528.901H417.145C417.158 528.901 417.17 528.901 417.183 528.901C417.187 528.901 417.191 528.901 417.195 528.901C417.203 528.901 417.216 528.901 417.228 528.901C419.041 528.897 420.628 528.789 421.94 528.601L425.532 532.214C427.37 534.068 423.632 535.601 417.145 535.601H88.8541Z" fill="#F4F4F4"/>
<path fill-rule="evenodd" clip-rule="evenodd" d="M88.7115 529.344C86.904 529.336 85.3128 529.072 84 528.608L84.0029 528.601C85.3166 529.066 86.9019 529.336 88.7115 529.344ZM417.291 529.344C419.1 529.336 420.684 529.066 422 528.601V528.608C420.688 529.071 419.1 529.336 417.291 529.344Z" fill="#CFCEC9"/>
<path fill-rule="evenodd" clip-rule="evenodd" d="M390.269 503.601H115.73C113.833 503.601 112.652 503.236 113.092 502.789L136.296 479.16C136.6 478.85 138.116 478.601 139.682 478.601H366.318C367.885 478.601 369.401 478.85 369.705 479.16L392.908 502.789C393.347 503.236 392.169 503.601 390.269 503.601Z" fill="#DCDBD6"/>
<path fill-rule="evenodd" clip-rule="evenodd" d="M294.437 521.601H212.563C210.444 521.601 208.854 521.139 209.011 520.573L212.642 507.456C212.773 506.982 214.437 506.601 216.359 506.601H290.641C292.563 506.601 294.227 506.982 294.358 507.456L297.989 520.573C298.146 521.139 296.556 521.601 294.437 521.601Z" fill="#DCDBD6"/>
<path fill-rule="evenodd" clip-rule="evenodd" d="M143.447 492.601H129.225C128.342 492.601 127.452 492.776 127.235 492.993L124.052 496.185C123.823 496.414 124.375 496.601 125.285 496.601H154.63C155.541 496.601 156.418 496.414 156.589 496.185L158.973 492.993C159.135 492.776 158.551 492.601 157.669 492.601H143.447Z" fill="#464644"/>
<path fill-rule="evenodd" clip-rule="evenodd" d="M176.245 496.601H163.398C162.5 496.601 161.883 496.443 162.019 496.25L164.343 492.932C164.471 492.749 165.28 492.601 166.151 492.601H178.603C179.474 492.601 180.094 492.749 179.988 492.932L178.074 496.25C177.962 496.443 177.143 496.601 176.245 496.601Z" fill="#464644"/>
<path fill-rule="evenodd" clip-rule="evenodd" d="M196.92 496.601H184.409C183.535 496.601 182.909 496.443 183.011 496.25L184.758 492.932C184.855 492.749 185.62 492.601 186.468 492.601H198.594C199.442 492.601 200.068 492.749 199.994 492.932L198.646 496.25C198.567 496.443 197.794 496.601 196.92 496.601Z" fill="#464644"/>
<path fill-rule="evenodd" clip-rule="evenodd" d="M218.414 496.601H205.505C204.602 496.601 203.931 496.443 204.006 496.25L205.276 492.932C205.346 492.749 206.112 492.601 206.987 492.601H219.5C220.374 492.601 221.045 492.749 220.998 492.932L220.139 496.25C220.089 496.443 219.316 496.601 218.414 496.601Z" fill="#464644"/>
<path fill-rule="evenodd" clip-rule="evenodd" d="M259.401 496.601H246.599C245.704 496.601 244.988 496.443 245 496.25L245.204 492.932C245.215 492.749 245.928 492.601 246.795 492.601H259.205C260.072 492.601 260.785 492.749 260.796 492.932L261 496.25C261.012 496.443 260.296 496.601 259.401 496.601Z" fill="#464644"/>
<path fill-rule="evenodd" clip-rule="evenodd" d="M239.061 496.601H226.514C225.637 496.601 224.96 496.443 225.002 496.25L225.719 492.932C225.759 492.749 226.48 492.601 227.33 492.601H239.492C240.342 492.601 241.017 492.749 241 492.932L240.682 496.25C240.664 496.443 239.938 496.601 239.061 496.601Z" fill="#464644"/>
<path fill-rule="evenodd" clip-rule="evenodd" d="M279.486 496.601H266.939C266.062 496.601 265.336 496.443 265.318 496.25L265 492.932C264.983 492.749 265.657 492.601 266.507 492.601H278.67C279.52 492.601 280.241 492.749 280.28 492.932L280.998 496.25C281.04 496.443 280.363 496.601 279.486 496.601Z" fill="#464644"/>
<path fill-rule="evenodd" clip-rule="evenodd" d="M300.495 496.601H287.586C286.684 496.601 285.911 496.443 285.861 496.25L285.002 492.932C284.955 492.749 285.626 492.601 286.5 492.601H299.013C299.888 492.601 300.654 492.749 300.724 492.932L301.994 496.25C302.069 496.443 301.398 496.601 300.495 496.601Z" fill="#464644"/>
<path fill-rule="evenodd" clip-rule="evenodd" d="M321.591 496.601H309.08C308.206 496.601 307.433 496.443 307.354 496.25L306.006 492.932C305.931 492.749 306.558 492.601 307.406 492.601H319.533C320.38 492.601 321.145 492.749 321.241 492.932L322.989 496.25C323.091 496.443 322.465 496.601 321.591 496.601Z" fill="#464644"/>
<path fill-rule="evenodd" clip-rule="evenodd" d="M342.601 496.601H329.755C328.857 496.601 328.038 496.443 327.926 496.25L326.012 492.932C325.906 492.749 326.526 492.601 327.396 492.601H339.849C340.719 492.601 341.529 492.749 341.657 492.932L343.981 496.25C344.117 496.443 343.5 496.601 342.601 496.601Z" fill="#464644"/>
<path fill-rule="evenodd" clip-rule="evenodd" d="M153.327 502.601H141.429C140.478 502.601 139.852 502.404 140.03 502.161L143.087 498.015C143.255 497.786 144.138 497.601 145.059 497.601H156.576C157.497 497.601 158.125 497.786 157.979 498.015L155.329 502.161C155.175 502.404 154.278 502.601 153.327 502.601Z" fill="#464644"/>
<path fill-rule="evenodd" clip-rule="evenodd" d="M132.931 502.601H121.328C120.415 502.601 119.838 502.404 120.04 502.161L123.497 498.015C123.688 497.786 124.559 497.601 125.443 497.601H136.675C137.559 497.601 138.14 497.786 137.971 498.015L134.909 502.161C134.73 502.404 133.844 502.601 132.931 502.601Z" fill="#464644"/>
<path fill-rule="evenodd" clip-rule="evenodd" d="M173.023 502.601H161.442C160.513 502.601 159.877 502.404 160.02 502.161L162.479 498.015C162.615 497.786 163.454 497.601 164.353 497.601H175.564C176.464 497.601 177.101 497.786 176.987 498.015L174.924 502.161C174.804 502.404 173.952 502.601 173.023 502.601Z" fill="#464644"/>
<path fill-rule="evenodd" clip-rule="evenodd" d="M365.572 502.601H353.676C352.727 502.601 351.83 502.404 351.673 502.161L349.022 498.015C348.873 497.786 349.5 497.601 350.424 497.601H361.934C362.858 497.601 363.738 497.786 363.908 498.015L366.97 502.161C367.148 502.404 366.521 502.601 365.572 502.601Z" fill="#464644"/>
<path fill-rule="evenodd" clip-rule="evenodd" d="M344.555 501.601H332.749C331.819 501.601 330.967 501.445 330.847 501.255L330.014 499.937C329.896 499.751 330.543 499.601 331.457 499.601H343.073C343.988 499.601 344.841 499.751 344.982 499.937L345.979 501.255C346.124 501.445 345.487 501.601 344.555 501.601Z" fill="#464644"/>
<path fill-rule="evenodd" clip-rule="evenodd" d="M384.668 501.601H373.257C372.339 501.601 371.45 501.445 371.271 501.255L370.031 499.937C369.856 499.751 370.443 499.601 371.344 499.601H382.571C383.473 499.601 384.362 499.751 384.562 499.937L385.96 501.255C386.16 501.445 385.585 501.601 384.668 501.601Z" fill="#464644"/>
<path fill-rule="evenodd" clip-rule="evenodd" d="M194.683 502.601H181.48C180.557 502.601 179.901 502.404 180.012 502.161L181.933 498.015C182.039 497.786 182.849 497.601 183.742 497.601H196.523C197.417 497.601 198.075 497.786 197.993 498.015L196.511 502.161C196.425 502.404 195.606 502.601 194.683 502.601Z" fill="#464644"/>
<path fill-rule="evenodd" clip-rule="evenodd" d="M324.52 502.601H311.317C310.394 502.601 309.576 502.404 309.489 502.161L308.007 498.015C307.925 497.786 308.583 497.601 309.477 497.601H322.258C323.152 497.601 323.961 497.786 324.067 498.015L325.988 502.161C326.1 502.404 325.443 502.601 324.52 502.601Z" fill="#464644"/>
<path fill-rule="evenodd" clip-rule="evenodd" d="M362.551 492.601H348.333C347.449 492.601 346.866 492.776 347.027 492.993L349.411 496.185C349.58 496.414 350.46 496.601 351.369 496.601H380.714C381.623 496.601 382.177 496.414 381.949 496.185L378.765 492.993C378.545 492.776 377.657 492.601 376.774 492.601H362.551Z" fill="#464644"/>
<path fill-rule="evenodd" clip-rule="evenodd" d="M144.338 487.601H134.965C134.103 487.601 133.239 487.776 133.036 487.994L130.047 491.186C129.832 491.414 130.378 491.601 131.267 491.601H150.584C151.472 491.601 152.336 491.414 152.512 491.186L154.971 487.994C155.138 487.776 154.574 487.601 153.712 487.601H144.338Z" fill="#464644"/>
<path fill-rule="evenodd" clip-rule="evenodd" d="M189.761 491.601H177.38C176.515 491.601 175.903 491.443 176.013 491.25L177.899 487.933C178.003 487.749 178.768 487.601 179.608 487.601H191.623C192.462 487.601 193.076 487.749 192.992 487.933L191.487 491.25C191.399 491.443 190.626 491.601 189.761 491.601Z" fill="#464644"/>
<path fill-rule="evenodd" clip-rule="evenodd" d="M169.321 491.601H157.297C156.457 491.601 155.885 491.443 156.02 491.25L158.328 487.933C158.456 487.749 159.22 487.601 160.035 487.601H171.704C172.52 487.601 173.094 487.749 172.987 487.933L171.048 491.25C170.934 491.443 170.162 491.601 169.321 491.601Z" fill="#464644"/>
<path fill-rule="evenodd" clip-rule="evenodd" d="M209.389 491.601H197.383C196.544 491.601 195.928 491.443 196.007 491.25L197.359 487.933C197.434 487.749 198.155 487.601 198.969 487.601H210.621C211.435 487.601 212.051 487.749 211.997 487.933L211.012 491.25C210.955 491.443 210.228 491.601 209.389 491.601Z" fill="#464644"/>
<path fill-rule="evenodd" clip-rule="evenodd" d="M229.854 491.601H217.474C216.609 491.601 215.95 491.443 216.003 491.25L216.907 487.933C216.956 487.749 217.677 487.601 218.517 487.601H230.531C231.371 487.601 232.028 487.749 231.999 487.933L231.476 491.25C231.445 491.443 230.719 491.601 229.854 491.601Z" fill="#464644"/>
<path fill-rule="evenodd" clip-rule="evenodd" d="M269.535 491.601H257.595C256.761 491.601 256.08 491.443 256.076 491.25L256 487.933C255.996 487.749 256.649 487.601 257.459 487.601H269.046C269.856 487.601 270.532 487.749 270.557 487.933L270.999 491.25C271.025 491.443 270.369 491.601 269.535 491.601Z" fill="#464644"/>
<path fill-rule="evenodd" clip-rule="evenodd" d="M249.45 491.601H237.474C236.637 491.601 235.978 491.443 236.001 491.25L236.4 487.933C236.422 487.749 237.098 487.601 237.91 487.601H249.532C250.344 487.601 251.002 487.749 251 487.933L250.968 491.25C250.966 491.443 250.287 491.601 249.45 491.601Z" fill="#464644"/>
<path fill-rule="evenodd" clip-rule="evenodd" d="M289.535 491.601H277.191C276.329 491.601 275.602 491.443 275.569 491.25L275.001 487.933C274.97 487.749 275.623 487.601 276.46 487.601H288.439C289.277 487.601 289.998 487.749 290.05 487.933L290.997 491.25C291.052 491.443 290.398 491.601 289.535 491.601Z" fill="#464644"/>
<path fill-rule="evenodd" clip-rule="evenodd" d="M309.625 491.601H297.653C296.816 491.601 296.089 491.443 296.03 491.25L295.004 487.933C294.947 487.749 295.559 487.601 296.371 487.601H307.99C308.802 487.601 309.522 487.749 309.6 487.933L310.993 491.25C311.074 491.443 310.462 491.601 309.625 491.601Z" fill="#464644"/>
<path fill-rule="evenodd" clip-rule="evenodd" d="M329.628 491.601H317.281C316.419 491.601 315.646 491.443 315.555 491.25L314.008 487.933C313.922 487.749 314.532 487.601 315.369 487.601H327.351C328.189 487.601 328.954 487.749 329.06 487.933L330.987 491.25C331.099 491.443 330.491 491.601 329.628 491.601Z" fill="#464644"/>
<path fill-rule="evenodd" clip-rule="evenodd" d="M349.711 491.601H337.719C336.881 491.601 336.108 491.443 335.993 491.25L334.013 487.933C333.904 487.749 334.475 487.601 335.288 487.601H346.927C347.738 487.601 348.504 487.749 348.633 487.933L350.979 491.25C351.117 491.443 350.55 491.601 349.711 491.601Z" fill="#464644"/>
<path fill-rule="evenodd" clip-rule="evenodd" d="M169.516 481.601H158.271C157.448 481.601 156.888 481.446 157.019 481.256L157.927 479.938C158.055 479.751 158.816 479.601 159.627 479.601H170.717C171.527 479.601 172.096 479.751 171.986 479.938L171.209 481.256C171.097 481.446 170.339 481.601 169.516 481.601Z" fill="#464644"/>
<path fill-rule="evenodd" clip-rule="evenodd" d="M151.33 481.601H140.219C139.407 481.601 138.873 481.446 139.026 481.256L140.09 479.938C140.24 479.751 141.011 479.601 141.812 479.601H152.768C153.57 479.601 154.112 479.751 153.98 479.938L153.046 481.256C152.911 481.446 152.142 481.601 151.33 481.601Z" fill="#464644"/>
<path fill-rule="evenodd" clip-rule="evenodd" d="M186.707 481.601H175.324C174.492 481.601 173.905 481.446 174.013 481.256L174.761 479.938C174.867 479.751 175.618 479.601 176.439 479.601H187.663C188.484 479.601 189.079 479.751 188.992 479.938L188.375 481.256C188.286 481.446 187.539 481.601 186.707 481.601Z" fill="#464644"/>
<path fill-rule="evenodd" clip-rule="evenodd" d="M204.901 481.601H193.38C192.538 481.601 191.923 481.446 192.008 481.256L192.592 479.938C192.675 479.751 193.415 479.601 194.246 479.601H205.607C206.437 479.601 207.059 479.751 206.996 479.938L206.545 481.256C206.479 481.446 205.744 481.601 204.901 481.601Z" fill="#464644"/>
<path fill-rule="evenodd" clip-rule="evenodd" d="M241.414 481.601H230.4C229.594 481.601 228.968 481.446 229.001 481.256L229.23 479.938C229.263 479.751 229.933 479.601 230.727 479.601H241.587C242.381 479.601 243.014 479.751 243 479.938L242.899 481.256C242.884 481.446 242.219 481.601 241.414 481.601Z" fill="#464644"/>
<path fill-rule="evenodd" clip-rule="evenodd" d="M223.098 481.601H211.439C210.586 481.601 209.944 481.446 210.004 481.256L210.421 479.938C210.48 479.751 211.21 479.601 212.051 479.601H223.548C224.389 479.601 225.038 479.751 224.998 479.938L224.716 481.256C224.676 481.446 223.951 481.601 223.098 481.601Z" fill="#464644"/>
<path fill-rule="evenodd" clip-rule="evenodd" d="M258.548 481.601H247.453C246.641 481.601 245.991 481.446 246 481.256L246.064 479.938C246.074 479.751 246.73 479.601 247.53 479.601H258.471C259.271 479.601 259.927 479.751 259.936 479.938L260 481.256C260.009 481.446 259.359 481.601 258.548 481.601Z" fill="#464644"/>
<path fill-rule="evenodd" clip-rule="evenodd" d="M276.6 481.601H265.586C264.781 481.601 264.116 481.446 264.101 481.256L264 479.938C263.986 479.751 264.618 479.601 265.413 479.601H276.273C277.067 479.601 277.737 479.751 277.77 479.938L277.999 481.256C278.032 481.446 277.406 481.601 276.6 481.601Z" fill="#464644"/>
<path fill-rule="evenodd" clip-rule="evenodd" d="M294.561 481.601H282.901C282.049 481.601 281.324 481.446 281.283 481.256L281.002 479.938C280.962 479.751 281.611 479.601 282.452 479.601H293.95C294.791 479.601 295.52 479.751 295.579 479.938L295.996 481.256C296.057 481.446 295.414 481.601 294.561 481.601Z" fill="#464644"/>
<path fill-rule="evenodd" clip-rule="evenodd" d="M312.62 481.601H301.099C300.256 481.601 299.52 481.446 299.455 481.256L299.004 479.938C298.941 479.751 299.563 479.601 300.393 479.601H311.754C312.584 479.601 313.325 479.751 313.408 479.938L313.992 481.256C314.077 481.446 313.462 481.601 312.62 481.601Z" fill="#464644"/>
<path fill-rule="evenodd" clip-rule="evenodd" d="M330.676 481.601H319.293C318.461 481.601 317.714 481.446 317.625 481.256L317.008 479.938C316.922 479.751 317.516 479.601 318.337 479.601H329.562C330.383 479.601 331.134 479.751 331.239 479.938L331.987 481.256C332.095 481.446 331.508 481.601 330.676 481.601Z" fill="#464644"/>
<path fill-rule="evenodd" clip-rule="evenodd" d="M347.729 481.601H336.484C335.661 481.601 334.903 481.446 334.791 481.256L334.014 479.938C333.904 479.751 334.472 479.601 335.283 479.601H346.37C347.184 479.601 347.944 479.751 348.072 479.938L348.982 481.256C349.11 481.446 348.553 481.601 347.729 481.601Z" fill="#464644"/>
<path fill-rule="evenodd" clip-rule="evenodd" d="M365.783 481.601H354.672C353.859 481.601 353.092 481.446 352.956 481.256L352.02 479.938C351.888 479.751 352.431 479.601 353.232 479.601H364.19C364.991 479.601 365.762 479.751 365.91 479.938L366.974 481.256C367.127 481.446 366.593 481.601 365.783 481.601Z" fill="#464644"/>
<path fill-rule="evenodd" clip-rule="evenodd" d="M362.668 487.601H354.278C353.419 487.601 352.863 487.776 353.03 487.994L355.522 491.186C355.701 491.414 356.56 491.601 357.445 491.601H374.74C375.624 491.601 376.167 491.414 375.953 491.186L372.983 487.994C372.778 487.776 371.918 487.601 371.063 487.601H362.668Z" fill="#464644"/>
<path fill-rule="evenodd" clip-rule="evenodd" d="M148.375 482.601H139.551C138.74 482.601 137.932 482.777 137.748 482.994L135.041 486.186C134.847 486.415 135.366 486.601 136.202 486.601H149.827C150.663 486.601 151.476 486.415 151.642 486.186L153.972 482.994C154.131 482.777 153.601 482.601 152.789 482.601H148.375Z" fill="#464644"/>
<path fill-rule="evenodd" clip-rule="evenodd" d="M187.904 486.601H176.291C175.479 486.601 174.907 486.444 175.012 486.25L176.82 482.933C176.92 482.749 177.641 482.601 178.429 482.601H189.711C190.5 482.601 191.074 482.749 190.992 482.933L189.528 486.25C189.443 486.444 188.715 486.601 187.904 486.601Z" fill="#464644"/>
<path fill-rule="evenodd" clip-rule="evenodd" d="M169.289 486.601H157.293C156.454 486.601 155.884 486.444 156.02 486.25L158.346 482.933C158.475 482.749 159.239 482.601 160.054 482.601H171.709C172.524 482.601 173.096 482.749 172.987 482.933L171.015 486.25C170.901 486.444 170.128 486.601 169.289 486.601Z" fill="#464644"/>
<path fill-rule="evenodd" clip-rule="evenodd" d="M207.323 486.601H195.371C194.536 486.601 193.926 486.444 194.007 486.25L195.411 482.933C195.489 482.749 196.21 482.601 197.021 482.601H208.632C209.443 482.601 210.054 482.749 209.996 482.933L208.946 486.25C208.884 486.444 208.158 486.601 207.323 486.601Z" fill="#464644"/>
<path fill-rule="evenodd" clip-rule="evenodd" d="M225.905 486.601H214.367C213.56 486.601 212.95 486.444 213.003 486.25L213.917 482.933C213.968 482.749 214.644 482.601 215.428 482.601H226.638C227.421 482.601 228.03 482.749 227.999 482.933L227.425 486.25C227.392 486.444 226.711 486.601 225.905 486.601Z" fill="#464644"/>
<path fill-rule="evenodd" clip-rule="evenodd" d="M264.515 486.601H252.515C251.676 486.601 250.998 486.444 251 486.25L251.034 482.933C251.036 482.749 251.698 482.601 252.513 482.601H264.171C264.986 482.601 265.661 482.749 265.679 482.933L266 486.25C266.018 486.444 265.354 486.601 264.515 486.601Z" fill="#464644"/>
<path fill-rule="evenodd" clip-rule="evenodd" d="M245.344 486.601H233.454C232.623 486.601 231.972 486.444 232.001 486.25L232.489 482.933C232.516 482.749 233.193 482.601 234 482.601H245.552C246.359 482.601 247.007 482.749 247 482.933L246.863 486.25C246.855 486.444 246.175 486.601 245.344 486.601Z" fill="#464644"/>
<path fill-rule="evenodd" clip-rule="evenodd" d="M283.601 486.601H271.934C271.118 486.601 270.437 486.444 270.413 486.25L270.001 482.933C269.978 482.749 270.602 482.601 271.394 482.601H282.73C283.522 482.601 284.198 482.749 284.24 482.933L284.998 486.25C285.042 486.444 284.417 486.601 283.601 486.601Z" fill="#464644"/>
<path fill-rule="evenodd" clip-rule="evenodd" d="M302.684 486.601H291.358C290.566 486.601 289.884 486.444 289.836 486.25L289.003 482.933C288.956 482.749 289.543 482.601 290.312 482.601H301.317C302.086 482.601 302.761 482.749 302.826 482.933L303.995 486.25C304.063 486.444 303.476 486.601 302.684 486.601Z" fill="#464644"/>
<path fill-rule="evenodd" clip-rule="evenodd" d="M322.679 486.601H310.942C310.122 486.601 309.394 486.444 309.318 486.25L308.006 482.933C307.934 482.749 308.521 482.601 309.318 482.601H320.721C321.518 482.601 322.239 482.749 322.331 482.933L323.99 486.25C324.086 486.444 323.5 486.601 322.679 486.601Z" fill="#464644"/>
<path fill-rule="evenodd" clip-rule="evenodd" d="M341.756 486.601H330.347C329.549 486.601 328.822 486.444 328.722 486.25L327.011 482.933C326.916 482.749 327.467 482.601 328.242 482.601H339.327C340.102 482.601 340.822 482.749 340.935 482.933L342.984 486.25C343.103 486.444 342.554 486.601 341.756 486.601Z" fill="#464644"/>
<path fill-rule="evenodd" clip-rule="evenodd" d="M354.144 482.601H346.226C345.418 482.601 344.877 482.777 345.024 482.994L347.185 486.186C347.34 486.415 348.139 486.601 348.973 486.601H369.8C370.633 486.601 371.152 486.415 370.96 486.186L368.259 482.994C368.075 482.777 367.271 482.601 366.459 482.601H354.144Z" fill="#464644"/>
<path fill-rule="evenodd" clip-rule="evenodd" d="M303.433 502.601H202.567C201.624 502.601 200.926 502.404 201.006 502.161L202.389 498.015C202.466 497.786 203.267 497.601 204.179 497.601H301.821C302.734 497.601 303.535 497.786 303.611 498.015L304.994 502.161C305.075 502.404 304.376 502.601 303.433 502.601Z" fill="#464644"/>
<rect x="138" y="324.601" width="230" height="142" fill="white"/>
<path d="M330.012 451.168H176.661" stroke="#E3EAF3" stroke-width="0.5" stroke-linecap="square"/>
<path d="M138 324.601H176.661V466.299H138V324.601Z" fill="#D3DEE5"/>
<rect x="330" y="325.601" width="36" height="141" fill="#CBE3FF" fill-opacity="0.2"/>
<rect x="143" y="331.601" width="28" height="9" fill="#EDF2F5"/>
<rect x="143" y="374.601" width="28" height="9" fill="#EDF2F5"/>
<rect x="143" y="386.601" width="28" height="9" fill="#EDF2F5"/>
<rect x="143" y="400.601" width="28" height="9" fill="#EDF2F5"/>
<rect x="143" y="412.601" width="28" height="9" fill="#EDF2F5"/>
<rect x="143" y="424.601" width="28" height="9" fill="#EDF2F5"/>
<g filter="url(#filter5_d_855_14949)">
<path d="M114.203 421.858C114.203 420.611 115.214 419.601 116.461 419.601H221.416C222.663 419.601 223.674 420.611 223.674 421.858V438.778C223.674 440.025 222.663 441.036 221.416 441.036H212.433V448.168L203.255 441.036H116.461C115.214 441.036 114.203 440.025 114.203 438.778V421.858Z" fill="#B0A7F5"/>
</g>
<path d="M124.757 425.24L213.954 425.24V427.44H124.757V425.24Z" fill="white"/>
<path d="M124.757 432.208L194.452 432.208V434.408H124.757V432.208Z" fill="white"/>
<rect x="187" y="338.601" width="84" height="14" fill="#EFF2F5"/>
<rect x="240" y="358.601" width="84" height="14" fill="#EFF2F5"/>
<rect x="184" y="383.601" width="84" height="14" fill="#EFF2F5"/>
<rect x="184" y="401.601" width="84" height="14" fill="#EFF2F5"/>
<rect x="240" y="426.601" width="84" height="14" fill="#EFF2F5"/>
<g filter="url(#filter6_d_855_14949)">
<path d="M114.046 351.357C114.046 350.188 114.994 349.24 116.163 349.24H224.263C225.432 349.24 226.379 350.188 226.379 351.357V369.294C226.379 370.462 225.432 371.41 224.263 371.41H215.651V378.304L206.893 371.41H116.163C114.994 371.41 114.046 370.462 114.046 369.294L114.046 351.357Z" fill="#B0A7F5"/>
<path d="M215.651 371.16H215.401V371.41V377.789L207.048 371.214L206.98 371.16H206.893H116.163C115.132 371.16 114.296 370.324 114.296 369.294V351.357C114.296 350.326 115.132 349.49 116.163 349.49H224.263C225.294 349.49 226.129 350.326 226.129 351.357V369.294C226.129 370.324 225.294 371.16 224.263 371.16H215.651Z" stroke="#D0D5DE" stroke-width="0.5"/>
</g>
<path d="M123.162 363.363L186.79 363.363V365.583H123.162V363.363Z" fill="white"/>
<path d="M123.162 356.509L215.006 356.509V358.729H123.162V356.509Z" fill="white"/>
<g filter="url(#filter7_d_855_14949)">
<path d="M394.25 388.281C394.25 387.461 393.585 386.796 392.765 386.796L288.985 386.796C288.165 386.796 287.5 387.461 287.5 388.281V409.446C287.5 410.266 288.165 410.931 288.985 410.931H297.204V416.942L305.126 410.931H392.765C393.585 410.931 394.25 410.266 394.25 409.446L394.25 388.281Z" fill="#CAC4FA"/>
</g>
<path d="M298 393.601L384.168 393.601V396.113H298V393.601Z" fill="white"/>
<path d="M297.5 400.613H352V403.125H297.5V400.613Z" fill="white"/>
<g clip-path="url(#clip0_855_14949)">
<path d="M214.234 114.666C213.634 114.666 213.111 114.444 212.666 114C212.222 113.556 212 113.034 212 112.434V103.766C212 103.545 212.039 103.334 212.117 103.134C212.195 102.934 212.322 102.734 212.5 102.534L219.034 96L219.934 96.9336C220.045 97.0669 220.139 97.2112 220.217 97.3664C220.295 97.5221 220.334 97.6779 220.334 97.8336V98.1L219.334 102.666H226.434C226.878 102.666 227.25 102.817 227.55 103.117C227.85 103.417 228 103.789 228 104.234V105.634C228 105.789 227.989 105.928 227.966 106.05C227.945 106.173 227.922 106.267 227.9 106.334L224.834 113.566C224.678 113.922 224.445 114.194 224.134 114.383C223.822 114.572 223.444 114.666 223 114.666H214.234ZM222.866 112.434L225.766 105.634V104.9H216.566L217.466 100.734L214.234 103.966V112.434H222.866ZM236.966 128L236.066 127.066C235.955 126.933 235.861 126.789 235.783 126.634C235.705 126.478 235.666 126.322 235.666 126.166V125.9L236.666 121.334H229.566C229.122 121.334 228.75 121.183 228.45 120.883C228.15 120.583 228 120.211 228 119.766V118.366C228 118.211 228.011 118.073 228.034 117.95C228.055 117.828 228.078 117.733 228.1 117.666L231.166 110.434C231.322 110.078 231.555 109.806 231.866 109.617C232.178 109.428 232.556 109.334 233 109.334H241.766C242.366 109.334 242.889 109.556 243.334 110C243.778 110.444 244 110.966 244 111.566V120.234C244 120.455 243.961 120.666 243.883 120.866C243.805 121.066 243.678 121.266 243.5 121.466L236.966 128ZM233.134 111.566L230.234 118.366V119.1H239.434L238.534 123.266L241.766 120.034V111.566H233.134ZM214.234 112.166V103.966V112.166ZM241.766 111.834V120.034V111.834Z" fill="#4D39E9"/>
</g>
<path d="M239.5 213.5V210.613L242.013 208.1V213.5H239.5ZM245.613 213.5V204.612L248.125 202.1V213.5H245.613ZM251.762 213.5V202.1L254.237 204.65V213.5H251.762ZM257.875 213.5V204.65L260.387 202.137V213.5H257.875ZM263.987 213.5V198.612L266.5 196.1V213.5H263.987ZM239.5 205.025V201.462L250 191.038L256 197.037L266.5 186.5V190.025L256 200.562L250 194.562L239.5 205.025Z" fill="#4D39E9"/>
<path d="M40.0018 198.581C39.2935 198.581 38.6855 198.327 38.1777 197.819C37.6706 197.312 37.417 196.692 37.417 195.96C37.417 195.252 37.6706 194.644 38.1777 194.136C38.6855 193.629 39.2935 193.375 40.0018 193.375C40.1435 193.375 40.2676 193.381 40.3741 193.393C40.4801 193.405 40.6158 193.434 40.7813 193.481L47.6518 186.61C47.6048 186.445 47.5813 186.303 47.5813 186.185V185.831C47.5813 185.099 47.8352 184.479 48.3429 183.972C48.8506 183.464 49.4587 183.21 50.167 183.21C50.8753 183.21 51.4831 183.47 51.9902 183.989C52.498 184.509 52.7518 185.123 52.7518 185.831C52.7518 185.878 52.7283 186.138 52.6813 186.61L56.4706 190.4C56.6361 190.353 56.7777 190.323 56.8956 190.311C57.014 190.299 57.1322 190.294 57.25 190.294C57.3679 190.294 57.4861 190.299 57.6045 190.311C57.7224 190.323 57.864 190.353 58.0295 190.4L63.4831 184.945C63.4361 184.78 63.4066 184.639 63.3947 184.52C63.3828 184.402 63.3768 184.285 63.3768 184.167C63.3768 183.458 63.6307 182.85 64.1384 182.343C64.6462 181.835 65.2661 181.581 65.9982 181.581C66.7066 181.581 67.3146 181.835 67.8223 182.343C68.3295 182.85 68.5831 183.458 68.5831 184.167C68.5831 184.875 68.3295 185.483 67.8223 185.99C67.3146 186.498 66.7066 186.752 65.9982 186.752H65.6259C65.52 186.752 65.3843 186.728 65.2188 186.681L59.7643 192.135C59.8119 192.3 59.8357 192.436 59.8357 192.543V192.914C59.8357 193.622 59.5819 194.23 59.0741 194.738C58.5664 195.246 57.9584 195.5 57.25 195.5C56.5417 195.5 55.9337 195.246 55.4259 194.738C54.9182 194.23 54.6643 193.622 54.6643 192.914V192.543C54.6643 192.436 54.6881 192.3 54.7357 192.135L50.9456 188.31C50.7807 188.357 50.639 188.387 50.5206 188.399C50.4027 188.411 50.2849 188.417 50.167 188.417C50.1194 188.417 49.8596 188.381 49.3875 188.31L42.517 195.181C42.564 195.346 42.5935 195.488 42.6054 195.606C42.6173 195.724 42.6232 195.842 42.6232 195.96C42.6232 196.692 42.3694 197.312 41.8616 197.819C41.3539 198.327 40.734 198.581 40.0018 198.581ZM41.667 183.387L40.8875 181.723L39.2232 180.944L40.8875 180.164L41.667 178.5L42.4456 180.164L44.1107 180.944L42.4456 181.723L41.667 183.387ZM57.25 181.723L56.0813 179.208L53.5313 178.039L56.0813 176.87L57.25 174.32L58.4188 176.87L60.9688 178.039L58.4188 179.208L57.25 181.723Z" fill="#4D39E9"/>
<path d="M435 105V101.833L443.958 92.917L447.083 96.042L438.167 105H435ZM420 96.375V93.625H432.208V96.375H420ZM448.667 94.458L445.542 91.333L446.75 90.125C447 89.875 447.319 89.75 447.708 89.75C448.097 89.75 448.417 89.875 448.667 90.125L449.875 91.333C450.125 91.583 450.25 91.9027 450.25 92.292C450.25 92.6807 450.125 93 449.875 93.25L448.667 94.458ZM420 89.583V86.792H439.167V89.583H420ZM420 82.792V80H439.167V82.792H420Z" fill="#4D39E9"/>
<path d="M455.023 217.5V200.5H457.396V217.5H455.023ZM460.831 223.167V194.833H463.169V223.167H460.831ZM449.25 211.833V206.167H451.623V211.833H449.25ZM466.604 217.5V200.5H468.977V217.5H466.604ZM472.377 211.833V206.167H474.75V211.833H472.377Z" fill="#4D39E9"/>
<defs>
<filter id="filter0_d_855_14949" x="193.312" y="79.9131" width="68.8832" height="68.8291" filterUnits="userSpaceOnUse" color-interpolation-filters="sRGB">
<feFlood flood-opacity="0" result="BackgroundImageFix"/>
<feColorMatrix in="SourceAlpha" type="matrix" values="0 0 0 0 0 0 0 0 0 0 0 0 0 0 0 0 0 0 127 0" result="hardAlpha"/>
<feOffset dy="2"/>
<feGaussianBlur stdDeviation="2"/>
<feColorMatrix type="matrix" values="0 0 0 0 0.627451 0 0 0 0 0.627451 0 0 0 0 0.627451 0 0 0 0.5 0"/>
<feBlend mode="normal" in2="BackgroundImageFix" result="effect1_dropShadow_855_14949"/>
<feBlend mode="normal" in="SourceGraphic" in2="effect1_dropShadow_855_14949" result="shape"/>
</filter>
<filter id="filter1_d_855_14949" x="20.05" y="157.65" width="65.8999" height="65.8994" filterUnits="userSpaceOnUse" color-interpolation-filters="sRGB">
<feFlood flood-opacity="0" result="BackgroundImageFix"/>
<feColorMatrix in="SourceAlpha" type="matrix" values="0 0 0 0 0 0 0 0 0 0 0 0 0 0 0 0 0 0 127 0" result="hardAlpha"/>
<feOffset dy="2"/>
<feGaussianBlur stdDeviation="2"/>
<feColorMatrix type="matrix" values="0 0 0 0 0.627451 0 0 0 0 0.627451 0 0 0 0 0.627451 0 0 0 0.5 0"/>
<feBlend mode="normal" in2="BackgroundImageFix" result="effect1_dropShadow_855_14949"/>
<feBlend mode="normal" in="SourceGraphic" in2="effect1_dropShadow_855_14949" result="shape"/>
</filter>
<filter id="filter2_d_855_14949" x="397.375" y="56.9756" width="69.25" height="69.1953" filterUnits="userSpaceOnUse" color-interpolation-filters="sRGB">
<feFlood flood-opacity="0" result="BackgroundImageFix"/>
<feColorMatrix in="SourceAlpha" type="matrix" values="0 0 0 0 0 0 0 0 0 0 0 0 0 0 0 0 0 0 127 0" result="hardAlpha"/>
<feOffset dy="2"/>
<feGaussianBlur stdDeviation="2"/>
<feColorMatrix type="matrix" values="0 0 0 0 0.627451 0 0 0 0 0.627451 0 0 0 0 0.627451 0 0 0 0.5 0"/>
<feBlend mode="normal" in2="BackgroundImageFix" result="effect1_dropShadow_855_14949"/>
<feBlend mode="normal" in="SourceGraphic" in2="effect1_dropShadow_855_14949" result="shape"/>
</filter>
<filter id="filter3_d_855_14949" x="427.375" y="175.976" width="69.25" height="69.1953" filterUnits="userSpaceOnUse" color-interpolation-filters="sRGB">
<feFlood flood-opacity="0" result="BackgroundImageFix"/>
<feColorMatrix in="SourceAlpha" type="matrix" values="0 0 0 0 0 0 0 0 0 0 0 0 0 0 0 0 0 0 127 0" result="hardAlpha"/>
<feOffset dy="2"/>
<feGaussianBlur stdDeviation="2"/>
<feColorMatrix type="matrix" values="0 0 0 0 0.627451 0 0 0 0 0.627451 0 0 0 0 0.627451 0 0 0 0.5 0"/>
<feBlend mode="normal" in2="BackgroundImageFix" result="effect1_dropShadow_855_14949"/>
<feBlend mode="normal" in="SourceGraphic" in2="effect1_dropShadow_855_14949" result="shape"/>
</filter>
<filter id="filter4_d_855_14949" x="220.436" y="169.036" width="69.1282" height="69.0742" filterUnits="userSpaceOnUse" color-interpolation-filters="sRGB">
<feFlood flood-opacity="0" result="BackgroundImageFix"/>
<feColorMatrix in="SourceAlpha" type="matrix" values="0 0 0 0 0 0 0 0 0 0 0 0 0 0 0 0 0 0 127 0" result="hardAlpha"/>
<feOffset dy="2"/>
<feGaussianBlur stdDeviation="2"/>
<feColorMatrix type="matrix" values="0 0 0 0 0.627451 0 0 0 0 0.627451 0 0 0 0 0.627451 0 0 0 0.5 0"/>
<feBlend mode="normal" in2="BackgroundImageFix" result="effect1_dropShadow_855_14949"/>
<feBlend mode="normal" in="SourceGraphic" in2="effect1_dropShadow_855_14949" result="shape"/>
</filter>
<filter id="filter5_d_855_14949" x="109.203" y="417.601" width="119.471" height="38.5674" filterUnits="userSpaceOnUse" color-interpolation-filters="sRGB">
<feFlood flood-opacity="0" result="BackgroundImageFix"/>
<feColorMatrix in="SourceAlpha" type="matrix" values="0 0 0 0 0 0 0 0 0 0 0 0 0 0 0 0 0 0 127 0" result="hardAlpha"/>
<feOffset dy="3"/>
<feGaussianBlur stdDeviation="2.5"/>
<feColorMatrix type="matrix" values="0 0 0 0 0.738175 0 0 0 0 0.738175 0 0 0 0 0.738175 0 0 0 0.339278 0"/>
<feBlend mode="normal" in2="BackgroundImageFix" result="effect1_dropShadow_855_14949"/>
<feBlend mode="normal" in="SourceGraphic" in2="effect1_dropShadow_855_14949" result="shape"/>
</filter>
<filter id="filter6_d_855_14949" x="109.046" y="347.24" width="122.333" height="39.0635" filterUnits="userSpaceOnUse" color-interpolation-filters="sRGB">
<feFlood flood-opacity="0" result="BackgroundImageFix"/>
<feColorMatrix in="SourceAlpha" type="matrix" values="0 0 0 0 0 0 0 0 0 0 0 0 0 0 0 0 0 0 127 0" result="hardAlpha"/>
<feOffset dy="3"/>
<feGaussianBlur stdDeviation="2.5"/>
<feColorMatrix type="matrix" values="0 0 0 0 0.70836 0 0 0 0 0.70836 0 0 0 0 0.70836 0 0 0 0.339278 0"/>
<feBlend mode="normal" in2="BackgroundImageFix" result="effect1_dropShadow_855_14949"/>
<feBlend mode="normal" in="SourceGraphic" in2="effect1_dropShadow_855_14949" result="shape"/>
</filter>
<filter id="filter7_d_855_14949" x="284.5" y="386.796" width="112.75" height="36.1465" filterUnits="userSpaceOnUse" color-interpolation-filters="sRGB">
<feFlood flood-opacity="0" result="BackgroundImageFix"/>
<feColorMatrix in="SourceAlpha" type="matrix" values="0 0 0 0 0 0 0 0 0 0 0 0 0 0 0 0 0 0 127 0" result="hardAlpha"/>
<feOffset dy="3"/>
<feGaussianBlur stdDeviation="1.5"/>
<feColorMatrix type="matrix" values="0 0 0 0 0.804422 0 0 0 0 0.804422 0 0 0 0 0.804422 0 0 0 0.339278 0"/>
<feBlend mode="normal" in2="BackgroundImageFix" result="effect1_dropShadow_855_14949"/>
<feBlend mode="normal" in="SourceGraphic" in2="effect1_dropShadow_855_14949" result="shape"/>
</filter>
<clipPath id="clip0_855_14949">
<rect width="32" height="32" fill="white" transform="translate(212 96)"/>
</clipPath>
</defs>
</svg>
