<svg width="328" height="80" viewBox="0 0 328 80" fill="none" xmlns="http://www.w3.org/2000/svg">
<g id="Group 4 Copy">
<g id="Group 43">
<g id="Group 28">
<path id="Combined Shape" fill-rule="evenodd" clip-rule="evenodd" d="M230.151 43.5123C230.151 28.9723 218.84 16.7109 204.048 16.7109C189.257 16.7109 177.946 28.9723 177.946 43.5123C177.946 58.0524 189.257 70.3138 204.048 70.3138C218.84 70.3138 230.151 58.0524 230.151 43.5123ZM182.296 43.5128C182.296 31.577 191.432 20.6177 204.048 20.6177C216.664 20.6177 225.8 31.577 225.8 43.5128C225.8 55.4487 216.664 66.4079 204.048 66.4079C191.432 66.4079 182.296 55.4487 182.296 43.5128Z" fill="#4D39E9"/>
<path id="Path" d="M76.7959 69.2267H72.663V38.4105C72.663 27.6683 65.1585 20.6153 56.1315 20.6153C47.1044 20.6153 39.5999 27.6683 39.5999 38.4105V69.2267H35.467V37.868C35.467 25.1726 44.6029 16.709 56.1315 16.709C67.66 16.709 76.7959 25.1726 76.7959 37.868V69.2267Z" fill="#4D39E9"/>
<path id="Path_2" d="M154.307 3.68945V17.7955H172.579V21.7017H154.307V54.9051C154.307 61.4156 158.223 65.3218 164.313 65.3218H172.579V69.2281H165.183C155.395 69.2281 150.174 63.5857 150.174 54.4711V3.68945H154.307Z" fill="#4D39E9"/>
<path id="Combined Shape_2" fill-rule="evenodd" clip-rule="evenodd" d="M271.408 69.2287H275.541V35.1573C275.541 25.3916 282.175 20.6172 288.918 20.6172C295.553 20.6172 302.296 25.3916 302.296 35.1573V69.2287H306.429V35.1573C306.429 23.2214 298.598 16.7109 288.918 16.7109C280.761 16.7109 275.758 20.4002 273.583 26.8022H273.366C271.19 20.4002 266.187 16.7109 258.03 16.7109C251.993 16.7109 247.534 19.6804 244.626 24.1892V18.59H240.52V39.8666V69.2269V69.2287H244.653V35.1573C244.653 25.3916 251.396 20.6172 258.03 20.6172C264.774 20.6172 271.408 25.3916 271.408 35.1573V69.2287Z" fill="#4D39E9"/>
<path id="Path_3" d="M326.804 69.2276H322.671V17.7949H326.804V69.2276Z" fill="#4D39E9"/>
<path id="Path_4" d="M321.474 3.25523C321.474 1.4106 322.888 0 324.737 0C326.586 0 328 1.4106 328 3.25523C328 5.09986 326.586 6.51046 324.737 6.51046C322.888 6.51046 321.474 5.09986 321.474 3.25523Z" fill="#4D39E9"/>
<path id="^" d="M11.1629 14.1113H13.4976L24.3655 31.9645H20.1964L12.1828 19.7281L4.16914 31.9645H0L11.1629 14.1113Z" fill="#4D39E9"/>
<path id="e" d="M89.6332 44.2258L89.4179 39.9408L135.487 39.9164C135.013 33.9046 131.793 28.116 126.176 24.3374C115.387 17.08 101.735 20.9629 94.9387 31.011C88.2031 40.9702 90.2758 54.7848 100.797 61.8622C111.05 68.7598 124.757 65.9481 131.43 56.4645C131.43 56.4645 132.248 55.4452 132.772 54.5084C133.295 53.5717 134.009 52.0125 134.009 52.0125L138.428 52.0125C138.428 52.0125 137.462 54.688 136.973 55.6375C136.349 56.8478 134.997 58.8636 134.997 58.8636C127.152 69.8878 111.293 73.5803 99.345 65.5433C86.1493 56.6665 83.1332 40.7942 91.4926 28.4341C99.5513 16.5186 115.323 12.3794 128.341 21.1362C136.454 26.5942 140.493 35.3919 140.177 44.1065L89.6332 44.2258Z" fill="#4D39E9"/>
</g>
</g>
</g>
</svg>
